<?xml version="1.0" standalone="no"?>
<!DOCTYPE svg PUBLIC "-//W3C//DTD SVG 20010904//EN"
 "http://www.w3.org/TR/2001/REC-SVG-20010904/DTD/svg10.dtd">
<svg version="1.0" xmlns="http://www.w3.org/2000/svg"
 width="860.000000pt" height="151.000000pt" viewBox="0 0 860.000000 151.000000"
 preserveAspectRatio="xMidYMid meet">

<g transform="translate(0.000000,151.000000) scale(0.100000,-0.100000)"
fill="#000000" stroke="none">
<path d="M5250 1100 c-126 -22 -245 -95 -313 -193 -73 -104 -99 -187 -100
-312 -2 -258 155 -459 398 -510 295 -62 560 104 620 390 8 39 15 90 15 115 0
25 -7 77 -15 115 -59 278 -315 445 -605 395z m241 -160 c101 -38 175 -123 204
-235 52 -202 -35 -402 -202 -465 -186 -70 -385 2 -460 166 -91 198 -21 440
151 524 90 43 210 47 307 10z"/>
<path d="M480 1083 c-66 -24 -144 -107 -164 -173 -20 -67 -20 -103 0 -170 24
-81 91 -142 240 -218 79 -40 133 -74 154 -98 29 -34 32 -42 28 -86 -12 -121
-163 -165 -322 -94 -33 14 -60 25 -61 24 0 -2 -13 -31 -27 -66 l-27 -62 37
-16 c168 -71 363 -54 460 39 73 69 98 176 68 282 -22 74 -89 143 -201 204
-189 104 -222 137 -212 214 4 27 16 50 36 71 30 30 35 31 114 31 70 0 91 -4
135 -27 28 -15 53 -24 55 -20 17 29 38 115 30 123 -5 5 -36 19 -69 31 -79 28
-212 34 -274 11z"/>
<path d="M1350 590 l0 -490 310 0 311 0 -3 63 -3 62 -232 3 -233 2 0 165 0
165 165 0 165 0 0 60 0 60 -165 0 -165 0 0 135 0 135 235 0 235 0 0 65 0 65
-310 0 -310 0 0 -490z"/>
<path d="M2500 590 l0 -490 75 0 75 0 0 184 0 183 123 7 c143 8 209 26 273 75
57 43 92 106 103 187 18 123 -21 227 -105 282 -71 48 -155 62 -363 62 l-181 0
0 -490z m366 357 c117 -25 157 -72 152 -179 -3 -55 -8 -72 -28 -94 -43 -46
-100 -65 -221 -71 l-109 -6 0 182 0 181 73 0 c39 0 100 -6 133 -13z"/>
<path d="M3590 590 l0 -490 75 0 75 0 0 230 0 230 255 0 255 0 0 -230 0 -230
75 0 75 0 0 490 0 490 -75 0 -75 0 0 -195 0 -195 -252 2 -253 3 -3 193 -2 192
-75 0 -75 0 0 -490z"/>
<path d="M6310 591 l0 -491 75 0 75 0 0 205 0 205 44 0 c24 0 56 3 72 6 28 5
33 -1 168 -201 76 -114 144 -209 151 -211 6 -3 49 -4 94 -2 l82 3 -146 210
c-81 115 -150 215 -152 222 -3 7 1 13 9 13 29 0 106 69 128 115 19 40 22 58
18 133 -5 97 -20 136 -76 195 -65 67 -118 80 -344 85 l-198 4 0 -491z m411
337 c110 -64 106 -214 -6 -272 -31 -16 -63 -22 -147 -24 l-108 -4 0 167 0 167
108 -3 c95 -4 112 -7 153 -31z"/>
<path d="M7765 1068 c-4 -11 -295 -901 -311 -951 -5 -16 1 -18 71 -15 l77 3
32 110 31 110 199 0 198 0 38 -108 c21 -60 41 -111 43 -113 3 -3 38 -4 79 -2
l75 3 -116 325 c-65 179 -143 398 -175 488 l-58 162 -89 0 c-63 0 -91 -4 -94
-12z m175 -392 l78 -236 -160 0 c-134 0 -159 2 -155 14 3 8 38 116 78 240 40
124 74 224 76 222 2 -2 39 -110 83 -240z"/>
</g>
</svg>
